<?xml version="1.0" encoding="iso-8859-1"?>
<!-- Generator: Adobe Illustrator 22.1.0, SVG Export Plug-In . SVG Version: 6.00 Build 0)  -->
<svg version="1.1" id="&#x56FE;&#x5C42;_1" xmlns="http://www.w3.org/2000/svg" xmlns:xlink="http://www.w3.org/1999/xlink" x="0px"
	 y="0px" viewBox="0 0 200 200" style="enable-background:new 0 0 200 200;" xml:space="preserve">
<linearGradient id="SVGID_1_" gradientUnits="userSpaceOnUse" x1="159.7659" y1="145.0098" x2="40.1639" y2="54.8833">
	<stop  offset="0" style="stop-color:#FF900E"/>
	<stop  offset="1" style="stop-color:#FFCC00"/>
</linearGradient>
<path style="fill:url(#SVGID_1_);" d="M99,25c-41.4,0.6-74.4,34.6-74,76c0.6,41.4,34.6,74.4,76,73.8s74.4-34.6,74-76
	C174.4,57.6,140.4,24.6,99,25z M107.4,50c7.6,0,9.8,4.4,9.8,9.4c0,6.4-5,12.2-13.6,12.2C96.4,71.6,93,68,93.2,62
	C93,57,97.2,50,107.4,50z M87.8,146.8c-5.2,0-9-3.2-5.4-17l6-24.6c1-4,1.2-5.6,0-5.6c-1.6,0-8.4,2.8-12.4,5.4l-2.6-4.2
	C86,90.2,100.6,84,106.8,84c5.2,0,6,6.2,3.4,15.6l-6.8,25.8c-1.2,4.6-0.6,6.2,0.6,6.2c1.6,0,6.6-1.8,11.8-5.8l3,4
	C106.4,142,93,146.8,87.8,146.8z"/>
</svg>
