<?xml version="1.0" encoding="iso-8859-1"?>
<!-- Generator: Adobe Illustrator 22.1.0, SVG Export Plug-In . SVG Version: 6.00 Build 0)  -->
<svg version="1.1" id="&#x56FE;&#x5C42;_1" xmlns="http://www.w3.org/2000/svg" xmlns:xlink="http://www.w3.org/1999/xlink" x="0px"
	 y="0px" viewBox="0 0 200 200" style="enable-background:new 0 0 200 200;" xml:space="preserve">
<linearGradient id="SVGID_1_" gradientUnits="userSpaceOnUse" x1="174.8835" y1="130.052" x2="50.4715" y2="36.3008">
	<stop  offset="0" style="stop-color:#FF900E"/>
	<stop  offset="1" style="stop-color:#FFCC00"/>
</linearGradient>
<path style="fill:url(#SVGID_1_);" d="M104.2,194.1l90-90c3.6-3.6,5.8-8.6,5.8-14.1V20c0-11-9-20-20-20h-70
	c-5.5,0-10.5,2.2-14.2,5.9l-90,90C2.2,99.5,0,104.5,0,110c0,5.5,2.2,10.5,5.9,14.1l70,70c3.6,3.7,8.6,5.9,14.1,5.9
	S100.6,197.7,104.2,194.1L104.2,194.1z M120,55c0-13.833,11.167-25,25-25c13.833,0,25,11.167,25,25s-11.167,25-25,25
	C131.167,80,120,68.833,120,55L120,55z"/>
</svg>
