<?xml version="1.0" encoding="UTF-8"?>
<svg width="29px" height="42px" viewBox="0 0 29 42" version="1.1" xmlns="http://www.w3.org/2000/svg" xmlns:xlink="http://www.w3.org/1999/xlink">
    <!-- Generator: Sketch 64 (93537) - https://sketch.com -->
    <title>足迹</title>
    <desc>Created with Sketch.</desc>
    <defs>
        <linearGradient x1="33.3992142%" y1="0%" x2="67.4867636%" y2="100%" id="linearGradient-1">
            <stop stop-color="#FFCC00" offset="0%"></stop>
            <stop stop-color="#FF900E" offset="100%"></stop>
        </linearGradient>
        <path d="M24.4782287,8.29821754 C24.4782287,7.72584395 24.7217729,7.15722734 25.1399189,6.75455154 C25.5581566,6.34992935 26.1462289,6.11509549 26.7391144,6.11509549 C27.3308996,6.11509549 27.9191095,6.34992935 28.3372555,6.75455154 C28.7563183,7.1572726 29,7.72588921 29,8.29821754 C29,8.86869 28.75641,9.43748767 28.3372555,9.841793 C27.9190178,10.2464152 27.3309455,10.4813396 26.7391144,10.4813396 C26.1461831,10.4813396 25.5581566,10.2464152 25.1399189,9.841793 C24.721727,9.43744241 24.4782287,8.86869 24.4782287,8.29821754 L24.4782287,8.29821754 L24.4782287,8.29821754 Z M18.4657177,4.65892638 C18.4657177,3.97298337 18.7592267,3.29057102 19.2615337,2.80578484 C19.763749,2.3210892 20.4699492,2.03768619 21.1797706,2.03768619 C21.8906006,2.03768619 22.5957923,2.32104394 23.0978701,2.80578484 C23.6010938,3.29048049 23.893686,3.97293811 23.893686,4.65892638 C23.893686,5.34500519 23.6009563,6.02741755 23.0978701,6.51215845 C22.5957006,6.9968541 21.8906006,7.27844651 21.1797706,7.27844651 C20.46972,7.27844651 19.7636573,6.99689936 19.2615337,6.51215845 C18.7594101,6.02741755 18.4657177,5.34500519 18.4657177,4.65892638 L18.4657177,4.65892638 Z M10.1933754,3.49367424 C10.1933754,2.69203436 10.5341906,1.89772738 11.1203376,1.33096663 C11.7067597,0.766061735 12.5306752,0.436035966 13.3585787,0.436035966 C14.1875365,0.436035966 15.0115436,0.766107 15.5976906,1.33096663 C16.1830126,1.89777265 16.5238736,2.6919891 16.5238736,3.49367424 C16.5238736,4.29354879 16.1832418,5.0896211 15.5976906,5.654526 C15.0115436,6.22133201 14.1874906,6.55113146 13.3585787,6.55113146 C12.5306752,6.55113146 11.7065764,6.22133201 11.1203376,5.654526 C10.5340989,5.08957584 10.1933754,4.29354879 10.1933754,3.49367424 L10.1933754,3.49367424 Z M0,3.93002706 C0,2.90088622 0.437994452,1.87925934 1.19232587,1.15040528 C1.94555715,0.423271288 3.00481155,0 4.0696125,0 C5.13537608,0 6.1945388,0.423226023 6.94790759,1.15040528 C7.70210149,1.87939513 8.14014179,2.90097675 8.14014179,3.93002706 C8.14014179,4.95907737 7.70214733,5.98274117 6.94790759,6.70964884 C6.19463048,7.43678284 5.13542192,7.86005412 4.0696125,7.86005412 C3.00481155,7.86005412 1.94555715,7.4368281 1.19232587,6.70964884 C0.43808613,5.98274117 0,4.95912264 0,3.93002706 L0,3.93002706 Z M19.005888,8.818265 L18.9991954,8.818265 C18.9133384,8.818265 18.8321112,8.80722038 18.7490504,8.80722038 C18.6630559,8.80722038 18.5810494,8.818265 18.4969343,8.818265 L8.98606011,8.818265 C8.90199085,8.81654494 8.81897589,8.80722038 8.73586925,8.80722038 C8.65092904,8.80722038 8.5688767,8.81654494 8.48480744,8.818265 L8.30635506,8.818265 L8.30635506,8.82953594 C4.68326313,9.04395537 1.80881853,11.9449321 1.80881853,15.4984012 C1.80881853,17.8960332 3.12170174,19.9952343 5.08641971,21.175288 L5.08641971,21.1827567 L5.21848272,21.259209 C5.21848272,21.259209 9.13040805,23.2671109 5.08641971,32.7826804 L5.08926175,32.7826804 C4.76073153,33.5657617 4.57466984,34.4140696 4.57466984,35.3089097 C4.57466984,39.0022018 7.67954856,42 11.5038292,42 C13.1803555,42 14.7171178,41.4239147 15.9170072,40.4657491 L15.9170072,40.4673786 L15.9188866,40.4767937 C22.8299852,34.9844063 27.2658995,26.7010356 27.3953497,17.4204358 C27.3981459,17.3345684 27.4093765,17.2544497 27.4093765,17.170574 C27.4093765,12.6383891 23.6654063,8.95261097 19.0060713,8.818265 L19.0060713,8.818265 L19.005888,8.818265 Z" id="path-2"></path>
    </defs>
    <g id="页面-1" stroke="none" stroke-width="1" fill="none" fill-rule="evenodd">
        <g id="iPhone-8" transform="translate(-306.000000, -292.000000)" fill-rule="nonzero">
            <g id="足迹" transform="translate(306.000000, 292.000000)">
                <g id="形状">
                    <use fill="#000000" xlink:href="#path-2"></use>
                    <use fill="url(#linearGradient-1)" xlink:href="#path-2"></use>
                </g>
            </g>
        </g>
    </g>
</svg>