<?xml version="1.0" encoding="iso-8859-1"?>
<!-- Generator: Adobe Illustrator 22.1.0, SVG Export Plug-In . SVG Version: 6.00 Build 0)  -->
<svg version="1.1" id="&#x56FE;&#x5C42;_1" xmlns="http://www.w3.org/2000/svg" xmlns:xlink="http://www.w3.org/1999/xlink" x="0px"
	 y="0px" viewBox="0 0 200 200" style="enable-background:new 0 0 200 200;" xml:space="preserve">
<linearGradient id="SVGID_1_" gradientUnits="userSpaceOnUse" x1="182.8901" y1="182.6099" x2="27.4324" y2="65.4641">
	<stop  offset="0" style="stop-color:#FF900E"/>
	<stop  offset="1" style="stop-color:#FFCC00"/>
</linearGradient>
<path style="fill:url(#SVGID_1_);" d="M98.013,3c26.262,0,47.562,21.6,47.562,48.237c0,26.65-21.3,48.25-47.562,48.25
	s-47.55-21.612-47.55-48.25C50.463,24.587,71.75,3,98,3H98.013z M98.013,3c26.262,0,47.562,21.6,47.562,48.237
	c0,26.65-21.3,48.25-47.562,48.25s-47.55-21.612-47.55-48.25C50.463,24.587,71.75,3,98,3H98.013z M80.175,115.562h39.65
	c33.925,0,61.425,27.9,61.425,62.312v4.012c0,13.562-27.5,14.087-61.425,14.087h-39.65c-33.925,0-61.425-0.037-61.425-14.1v-4.012
	c0-34.413,27.5-62.313,61.425-62.313V115.562z"/>
</svg>
