<?xml version="1.0" encoding="iso-8859-1"?>
<!-- Generator: Adobe Illustrator 22.1.0, SVG Export Plug-In . SVG Version: 6.00 Build 0)  -->
<svg version="1.1" id="&#x56FE;&#x5C42;_1" xmlns="http://www.w3.org/2000/svg" xmlns:xlink="http://www.w3.org/1999/xlink" x="0px"
	 y="0px" viewBox="0 0 200 200" style="enable-background:new 0 0 200 200;" xml:space="preserve">
<linearGradient id="SVGID_1_" gradientUnits="userSpaceOnUse" x1="170.0877" y1="146.4548" x2="36.2322" y2="45.5874">
	<stop  offset="0" style="stop-color:#FF900E"/>
	<stop  offset="1" style="stop-color:#FFCC00"/>
</linearGradient>
<path style="fill:url(#SVGID_1_);" d="M175.627,131.595c-28.68,18.024-46.256,26.572-72.86,25.688
	c-26.604-0.88-94.36-48.276-94.408-57.544c-0.052-9.272,0.596-15.008,4.104-22.608c11.016,14.216,55.068,44.18,96.464,47.268
	c41.396,3.088,83.924-28.488,82.096-38.02C195.611,100.979,204.307,113.571,175.627,131.595L175.627,131.595z M115.083,115.155
	c-28.016-1.256-87.908-25.508-96.464-41.104c-4.068-12.664,45.52-27.884,70.808-25.692s95.36,20.876,96.464,31.856
	C186.991,91.195,143.095,116.407,115.083,115.155L115.083,115.155z M66.851,57.607c-2.372-1.424-11.624,1.988-12.628,3.888
	c-1.004,1.904,7.944,11.092,9.352,11.496c1.408,0.408,9.024-1.968,9.432-3.056C73.415,68.855,69.223,59.031,66.851,57.607
	L66.851,57.607z M73.783,55.535c-1.368,1.292,6.22,12.7,7.436,13.376c1.216,0.676,20.644-0.656,21.548-1.028
	c0.908-0.372,5.028-6.172,4.6-11.496C103.163,51.903,75.151,54.243,73.783,55.535z M113.747,57.239
	c-1.636,0.376-4.576,11.648-3.796,12.7c0.78,1.052,10.264,3.084,10.264,3.084s6.704-10.796,6.156-12.332
	S115.383,56.863,113.747,57.239z M134.155,62.775c-1.36,0.492-6.184,12.516-5.732,13.332c0.452,0.812,9.052,3.576,10.264,3.084
	c1.212-0.492,8.296-9.752,7.8-11.304C145.987,66.335,135.511,62.283,134.155,62.775L134.155,62.775z M150.999,70.967
	c-4.764,14.696-31.724,20.984-47.204,20.552c-15.48-0.432-43.936-14.064-55.416-26.716c0,0-11.192-1.084-8.208,7.192
	c2.98,8.28,49.012,24.776,68.756,26.716c19.744,1.94,43.36-11.848,49.256-16.44C164.079,77.679,159.043,72.798,150.999,70.967
	L150.999,70.967z"/>
</svg>
